PathFileType	4	(X/Y/Z)	53_2_79_p0_0-245_filt_butterworth.trc
DataRate	CameraRate	NumFrames	NumMarkers	Units	OrigDataRate	OrigDataStartFrame	OrigNumFrames
59.0	59.0	7	27	m	59.0	91	245
Frame#	Time	RHip			RKnee			RAnkle			RBigToe			RSmallToe			RHeel			LHip			LKnee			LAnkle			LBigToe			LSmallToe			LHeel			Neck			Head			Nose			RShoulder			RElbow			RWrist			RThumb			RIndex			RPinky			LShoulder			LElbow			LWrist			LThumb			LIndex			LPinky			
		X1	Y1	Z1	X2	Y2	Z2	X3	Y3	Z3	X4	Y4	Z4	X5	Y5	Z5	X6	Y6	Z6	X7	Y7	Z7	X8	Y8	Z8	X9	Y9	Z9	X10	Y10	Z10	X11	Y11	Z11	X12	Y12	Z12	X13	Y13	Z13	X14	Y14	Z14	X15	Y15	Z15	X16	Y16	Z16	X17	Y17	Z17	X18	Y18	Z18	X19	Y19	Z19	X20	Y20	Z20	X21	Y21	Z21	X22	Y22	Z22	X23	Y23	Z23	X24	Y24	Z24	X25	Y25	Z25	X26	Y26	Z26	X27	Y27	Z27	
91	1.5423728813559323	0.40167427012773144	0.6295416326448926	0.6402192632658738	0.3289960589273342	0.6723352988967153	1.069384390734579	0.346306304058855	0.8505142291031242	1.514258486162783	0.30211106260524945	0.6833528834009305	1.5555909687949663	0.36142067203483846	0.7222415005080374	1.567693136224913	0.33583145447532087	0.9864834548835694	1.6024657400975983	0.19208957933028722	0.6293950164278771	0.6354033270884587	0.16575120087823728	0.795993443687513	1.0858650372667502	0.1691137228960444	0.8928801051866554	1.5122757424612374	0.1685436116741174	0.7013063062305275	1.5471995954281321	0.11102744996053263	0.7759479989337695	1.5530970267336326	0.18327600272376549	0.9844655639198451	1.579867871635694	0.25610060640248605	0.5600256120277679	0.054950192529687095	0.24600897641694922	0.451476994330099	-0.16565142437905794	0.26460689416774447	0.38662007487479605	-0.03296451546363934	0.4205157914986998	0.5407792628714893	0.12350205727117072	0.6324650414674733	0.5842166397588118	0.31388715083221136	0.5569228792957897	0.4210907372921785	0.22354458936821003	0.4580228612528749	0.40476316300930537	0.14891450521856758	0.43160409493779905	0.3509682595885544	0.17391041546207453	0.44543876346508854	0.3586277198347713	0.22822059540253775	0.1061092336962636	0.555267631815202	0.1511543788838527	-0.0776106216558489	0.5340274578069925	0.3591262601950989	0.014694905239408224	0.4465307671410065	0.2544948583411164	0.08570469612947068	0.4169160959186212	0.16814103006160538	0.08590465483773906	0.3881271335945673	0.18012042618378143	0.10630325351504227	0.4048389487866299	0.237186073935352
92	1.5593220338983051	0.4013750794258807	0.6302160708418114	0.6397357191911033	0.3290121990951199	0.6724749787209898	1.0689976902557883	0.34630976821233844	0.8505095979604598	1.5142747088951627	0.3021614535654797	0.6834524765006895	1.5555701358975709	0.36309856151548775	0.7227051986553658	1.5678722749551273	0.33549636083825274	0.9869557466311163	1.6029111246918943	0.19181928298305942	0.6289257824475891	0.6352925035921956	0.16584268581584785	0.7961756090894089	1.085726731296662	0.1691007188533253	0.8927190405814494	1.512260339777131	0.16869129103374683	0.7015321250482541	1.5472264493262116	0.11106095885217453	0.7755333074399704	1.55423584146091	0.18284612750936366	0.9826540725877208	1.5796870739439068	0.2543775493394783	0.5630991941911653	0.05501195754850381	0.24481855185109724	0.4512450734660792	-0.16596477680996696	0.2642330750191521	0.3865312831856269	-0.03321146570594323	0.4187875401966013	0.5479618777906787	0.12252832858260038	0.632198742846652	0.577990881250806	0.31318465948840923	0.5568776386650618	0.4212417873798432	0.22275508698884008	0.4547892195084033	0.40315618511299317	0.14385826564783397	0.429828248180984	0.34928479618507563	0.1692874297464127	0.446518843389843	0.365238836281384	0.22565202021708491	0.10116375717993704	0.5623577656210044	0.15077174957734393	-0.08032391097889872	0.5272290240196036	0.3571450096143284	0.012342631367884535	0.44947207434415254	0.2504690819037657	0.08434683748605659	0.4104584168234552	0.1645745915907344	0.0844598933185017	0.3862574271649493	0.1738294213838411	0.10585658238303061	0.4007944183211503	0.23270439333330412
93	1.576271186440678	0.4002203361477512	0.6299135390449421	0.6386893780769308	0.32902492196123545	0.6726012007234411	1.0689306471118931	0.3463476104859358	0.8504466463148895	1.5141982751956884	0.30218301031512995	0.6849109795989543	1.5560201089953691	0.3643164994075519	0.7232930771636202	1.5680755786498985	0.3355641899743543	0.9872368069559572	1.6016503236252166	0.19199883037824733	0.6286084572972374	0.6348355895513196	0.1658150577551463	0.7964891349124195	1.0853139642285394	0.1690867523022193	0.8925437028347116	1.5122268651467767	0.16869327408973386	0.7017571141063701	1.5476679735134573	0.11108301997990838	0.7752990070219261	1.5557715922845472	0.18199062205246672	0.9785597030469994	1.5792224696626582	0.2532733203067043	0.5632980638399914	0.055267293396019365	0.2439435292302204	0.451079136579313	-0.16677926089503117	0.2634894997316206	0.38581948634118135	-0.03391429544401456	0.4180318498046943	0.5507034814514508	0.12218433987423338	0.6316989061191167	0.5756891923149027	0.3112298867399144	0.5568442327668914	0.42133805116723155	0.22279759784668673	0.451397314156117	0.40153133525050055	0.13979950843838318	0.4278584502175785	0.34698525288897636	0.16548108364511513	0.4467715908923997	0.3705397206148233	0.22362643116712816	0.09686498698180551	0.568111386374726	0.1504541198460225	-0.08183501277790894	0.5222515765511002	0.354943342737457	0.00967983139763173	0.4522548952987031	0.24684139028572633	0.08328281938519148	0.4059073610722683	0.16173481408062404	0.0841940834406672	0.3835435829897002	0.1685100183052211	0.10557157208610567	0.3993992906351663	0.22945271171970238
94	1.5932203389830508	0.3986704756485975	0.629647637502365	0.6371039004637244	0.3290477422866579	0.6726643712361772	1.0689781908899683	0.34649870358734464	0.8502210145157283	1.513628130228722	0.30221576883939805	0.6883837030276984	1.5572085195903504	0.364709685346151	0.7238211312391573	1.5682412060012303	0.3359169837485009	0.9870442967705145	1.5993131556945293	0.19216283711314022	0.6283952022635797	0.633849392526144	0.16534869559667062	0.7966437758523025	1.084713937153371	0.169068849101462	0.8924231561733207	1.5121894639865547	0.16825332627381248	0.7019735714302884	1.5487092978633372	0.11110073859431721	0.7752821719694303	1.5569736361731363	0.18104653353059896	0.9735980726281743	1.5786198809676628	0.2525058850578546	0.5614531923777114	0.05566804545777382	0.24359073693169986	0.45104211923069676	-0.16788206770500322	0.26242870502225063	0.38492986071785584	-0.03492182278053799	0.41757846056435816	0.550625640270809	0.12212927230247153	0.631273822403698	0.5769595139389271	0.3086050423075799	0.5569224429721269	0.421279198770425	0.22296106125826815	0.448646218329598	0.40105895989137363	0.13749628381574996	0.42619135391885365	0.3451752433722648	0.1632314569138683	0.44635436710716314	0.37333663071546425	0.2222534671410961	0.09381140953929923	0.5731326973120286	0.15025438773058067	-0.08260539270173646	0.5198474508341688	0.3522031118970839	0.0072659724895419294	0.4551600708722279	0.24299998853454974	0.08338391281529856	0.40813743254916407	0.16028152591457479	0.08497249289503057	0.38174545542589877	0.16436720463550658	0.10538838362537736	0.39757554528289585	0.22684820699717997
95	1.6101694915254237	0.39751589577989466	0.6296207829459758	0.6359518809186249	0.32910324298850185	0.6727637303083756	1.0692270364860945	0.3468257120235291	0.8497697121467884	1.5122375922935778	0.3021949600762488	0.6928324836189305	1.5588087580847267	0.36447269395574877	0.7236509361470458	1.5681471937795997	0.33612507359493815	0.9863858427039133	1.596911629484944	0.19174651845494706	0.6285508523402111	0.6326332380889539	0.16421141091096084	0.7964069361344335	1.0844116452806052	0.16903347313031902	0.8923915363364674	1.512156713031059	0.16708282647224884	0.701929943563434	1.5499576960867454	0.11110109427726647	0.7754375128827551	1.5575046211291197	0.18050391807995322	0.9701823871056301	1.578102079734518	0.2520334314432071	0.559846718213306	0.05604257857012859	0.2435689945902279	0.4511224190078994	-0.16873838409752515	0.26151504515316143	0.38450865673121926	-0.03576711317798883	0.41671386609096167	0.5498593645633151	0.12220601296063173	0.6315440805132047	0.5786370150577809	0.3065678206995221	0.55727231065467	0.4210866083096065	0.2229056231435876	0.44688404905118084	0.4042371334812586	0.13631518721768854	0.42531454231023497	0.3469101296785482	0.16219004364867595	0.44543468320125706	0.3736162163569078	0.22155987179493478	0.09182932946531745	0.5777280833394205	0.1501596918737987	-0.08356495806289393	0.5187796537431146	0.3486867480279339	0.005817673259423922	0.4573878861943346	0.23953463409215395	0.08481499899793342	0.41547575026661465	0.1599204622973908	0.08599629449519663	0.38114164386733584	0.1615995042047353	0.10481294689578487	0.3941841180628867	0.22477073820601037
96	1.6271186440677967	0.39712647346374097	0.6297311175706866	0.6359300576680766	0.32923272223779565	0.6731171784316016	1.0699896283462746	0.34724481027375964	0.8492265223209837	1.5104143829662804	0.30208245484202517	0.69624195512878	1.560103463037432	0.3640102466453786	0.7215337057040078	1.5673288015543543	0.3358313521818164	0.9855567178600664	1.5951624028142735	0.19018984495934765	0.6299526928208159	0.6317760545163469	0.16272302978941403	0.795925466712057	1.0847355630265147	0.16896986133347547	0.8924210299221982	1.512121814866619	0.16527014371873186	0.7014888058367122	1.5507807975713024	0.11105355014877538	0.7756361433704921	1.5576054462063393	0.1804294650092497	0.9689349387229185	1.5777475881760683	0.25189546738303087	0.5595283325510053	0.056226907821994236	0.2436225636631797	0.45127691747532983	-0.1690948213920795	0.2607610967550292	0.38557232941878594	-0.03621761867560366	0.41552695071798806	0.5493378586978064	0.12257875305388245	0.6327324585406862	0.5785584312263437	0.3056805984243903	0.5577970046464993	0.4208303980644873	0.2225562292224773	0.445623767490862	0.4128284420373591	0.13549028337648947	0.4252797108764513	0.3544219405750667	0.1616470794449234	0.44471511694723415	0.37277725285481395	0.22123831042748926	0.09014088386369302	0.5824959739754234	0.15004386368244696	-0.0852975928590889	0.518683642870032	0.3451121952312094	0.005294973277888182	0.45846165036179154	0.23789941570280723	0.08684725784582441	0.4231530019904303	0.16085546740799017	0.08633908648440686	0.3813154429626626	0.16097094492307917	0.10237158572042682	0.38873508590233485	0.22420444166667933
97	1.6440677966101696	0.39740854091995925	0.6297670839005106	0.6365467475375385	0.32942743683723347	0.6737179678556566	1.0712483122161125	0.347567161558076	0.8487854359514662	1.5091173788081178	0.3018359859893359	0.6974440881431981	1.560712293294097	0.3636767475381404	0.7167052284844739	1.5654618922243517	0.33517933684268797	0.9848386119871929	1.5942272113227833	0.187619431062418	0.6333324546899596	0.6313408403761938	0.16158423831357044	0.7955540899653887	1.0853425776245413	0.1688973959333374	0.8924575049699333	1.512082035180221	0.1634576296469311	0.7010296107337213	1.5511051300564713	0.11096925726113309	0.7757396744416191	1.5576036938944915	0.18054355834766336	0.9688154071498873	1.5775335321845962	0.25220203464167473	0.560971731778364	0.056199371125830296	0.2436589785048487	0.45143702156637394	-0.16912217345262748	0.25975954369375914	0.3887479438754083	-0.0362869429889953	0.41463715586047195	0.5491678194119614	0.12345274457559084	0.6341286830785189	0.5757219578235054	0.3056318596222988	0.5578570385506502	0.42055937329460047	0.22206287194621985	0.44327334528420576	0.42535939887427193	0.13546543012373757	0.4255011934587207	0.3633953954126853	0.1615213452642523	0.44420720186570184	0.37221251069976885	0.22089948489503983	0.08834320341818021	0.5872071284200323	0.14977263121002055	-0.0876514368570015	0.5202142727752525	0.342694346072989	0.005132593925161756	0.45886760130730886	0.2387836101683941	0.08796172045470824	0.4259484285095863	0.16326885349966158	0.08576168661273302	0.3818747426415976	0.16258358925194727	0.09791902329243576	0.3826148805434058	0.22592912045169794
